<?xml version="1.0" encoding="UTF-8" standalone="no"?>
<svg width="76px" height="30px" viewBox="0 0 67 31" version="1.1" xmlns="http://www.w3.org/2000/svg" xmlns:xlink="http://www.w3.org/1999/xlink">
    <!-- Generator: Sketch 3.6.1 (26313) - http://www.bohemiancoding.com/sketch -->
    <title>Artboard 1</title>
    <desc>Created with Sketch.</desc>
    <defs>
        <path id="path-1" d="M30.952325,0.0844873016 L2.80958257e-05,0.0844873016 L2.80958257e-05,29.99478 L30.952325,29.99478 L30.952325,0.0844873016 L30.952325,0.0844873016 Z"></path>
    </defs>
    <g id="Page-1" stroke="none" stroke-width="1" fill="none" fill-rule="evenodd">
        <g id="Artboard-1">
            <g id="Group">
                <g id="Logo">
                    <g id="Group-3" transform="translate(0.000000, 0.035014)">
                        <mask id="mask-2" fill="white">
                            <use xlink:href="#path-1"></use>
                        </mask>
                        <g id="Clip-2"></g>
                        <path d="M14.2305057,1.01966732 C6.64541025,2.95319567 1.07916694,6.22298569 0.115390295,10.2897288 C-0.846832834,14.3565914 4.31884268,22.482071 11.5565483,26.6152567 C18.797361,30.7496374 25.4921731,31.4782358 28.3292495,26.6152567 C30.6883214,22.5719358 32.3370785,14.9120326 29.3053347,6.01684624 C27.2107189,-0.126229048 21.8154817,-0.91386102 14.2305057,1.01966732" id="Fill-1" fill="#9F29FF" mask="url(#mask-2)"></path>
                    </g>
                    <path d="M13.3079092,19.9675281 C12.1935611,19.9675281 11.5768157,18.8229462 11.5768157,17.6618732 C11.5768157,16.5028317 12.1935611,15.3900372 13.3079092,15.3900372 C14.4184332,15.3900372 15.0339835,16.5028317 15.0339835,17.6618732 C15.0339835,18.8229462 14.4184332,19.9675281 13.3079092,19.9675281 M13.3079092,13.3419072 C10.8778536,13.3419072 9.26195927,15.2649195 9.26195927,17.6758549 C9.26195927,20.0897778 10.8778536,22.0105195 13.3079092,22.0105195 C15.7316312,22.0105195 17.3456135,20.0897778 17.3456135,17.6758549 C17.3456135,15.2649195 15.7316312,13.3419072 13.3079092,13.3419072 M19.8981577,13.3465678 C19.0828015,13.3465678 18.4186141,15.2871467 18.4186141,17.6805154 C18.4186141,20.0742426 19.0828015,22.0133875 19.8981577,22.0133875 C20.7141114,22.0133875 21.3754307,20.0742426 21.3754307,17.6805154 C21.3754307,15.2871467 20.7141114,13.3465678 19.8981577,13.3465678 M19.8795155,12.2715356 C20.6828021,12.2715356 21.3302593,11.6206129 21.3302593,10.8185213 C21.3302593,10.0188197 20.6828021,9.36861404 19.8795155,9.36861404 C19.0792164,9.36861404 18.4305643,10.0188197 18.4305643,10.8185213 C18.4305643,11.6206129 19.0792164,12.2715356 19.8795155,12.2715356" id="Fill-4" fill="#FFFFFF"></path>
                </g>
                <path d="M39.534,16.612 L41.76,16.612 C42.3106694,16.612 42.7959979,16.5280008 43.216,16.36 C43.6360021,16.1919992 43.981332,15.9610015 44.252,15.667 C44.522668,15.3729985 44.725666,15.0323353 44.861,14.645 C44.996334,14.2576647 45.064,13.8446689 45.064,13.406 C45.064,12.9673311 44.996334,12.5543353 44.861,12.167 C44.725666,11.7796647 44.522668,11.4390015 44.252,11.145 C43.981332,10.8509985 43.6360021,10.6200008 43.216,10.452 C42.7959979,10.2839992 42.3106694,10.2 41.76,10.2 L38.036,10.2 L38.036,20 L39.534,20 L39.534,16.612 Z M41.76,11.656 C42.0680015,11.656 42.3339989,11.7003329 42.558,11.789 C42.7820011,11.8776671 42.9663326,12.0013325 43.111,12.16 C43.2556674,12.3186675 43.3629997,12.5029989 43.433,12.713 C43.5030004,12.923001 43.538,13.1493321 43.538,13.392 C43.538,13.6346679 43.5030004,13.8609989 43.433,14.071 C43.3629997,14.281001 43.2556674,14.4653325 43.111,14.624 C42.9663326,14.7826675 42.7820011,14.9063329 42.558,14.995 C42.3339989,15.0836671 42.0680015,15.128 41.76,15.128 L39.534,15.128 L39.534,11.656 L41.76,11.656 Z M45.922,20 L51.704,20 L51.704,18.516 L47.42,18.516 L47.42,10.2 L45.922,10.2 L45.922,20 Z M54.284,16.248 L55.642,12.356 L57,16.248 L54.284,16.248 Z M58.302,20 L59.842,20 L56.412,10.2 L54.872,10.2 L51.442,20 L52.982,20 L53.808,17.634 L57.476,17.634 L58.302,20 Z M66.79,10.2 L65.138,10.2 L62.59,14.708 L60.042,10.2 L58.39,10.2 L61.834,16.262 L61.834,20 L63.332,20 L63.332,16.262 L66.79,10.2 Z" id="Play" fill="#9F29FF"></path>
            </g>
        </g>
    </g>
</svg>
