<?xml version="1.0" encoding="utf-8"?>
<!-- Generator: Adobe Illustrator 19.2.1, SVG Export Plug-In . SVG Version: 6.00 Build 0)  -->
<svg version="1.1" id="Layer_1" xmlns="http://www.w3.org/2000/svg" xmlns:xlink="http://www.w3.org/1999/xlink" x="0px" y="0px"
   viewBox="0 0 69 60" enable-background="new 0 0 69 60" xml:space="preserve">
<g class="oi">
  <g>
    <path fill="#FFFFFF" d="M40.3,23.9c1.5,0,2.8-1.3,2.8-2.9c0-1.5-1.3-2.8-2.8-2.8s-2.8,1.3-2.8,2.8C37.5,22.6,38.7,23.9,40.3,23.9z"/>
    <path fill="#FFFFFF" d="M27.9,25.7c-4.5,0-7.8,3.5-7.8,8.3s3.3,8.3,7.8,8.3s7.7-3.4,7.8-8.3C35.7,29.2,32.4,25.7,27.9,25.7z
       M27.9,38.3c-2.1,0-3.2-2.2-3.2-4.3s1.1-4.2,3.2-4.2s3.1,2.1,3.2,4.2C31.1,36.1,30,38.3,27.9,38.3z"/>
    <ellipse fill="#FFFFFF" cx="40.4" cy="34" rx="2.9" ry="8.3"/>
  </g>
</g>
<g class="ameba">
  <g>
    <path fill="#9F2AFF" d="M27.9,29.7c-2.1,0-3.3,2.1-3.3,4.3s1.2,4.4,3.3,4.4s3.3-2.2,3.3-4.4C31.1,31.8,30,29.7,27.9,29.7z"/>
    <path fill="#9F2AFF" d="M53.9,15.7C46.6,10.8,41,0.2,25.9,0.2C8.9,0.2,0,15.7,0,28.9c0,19.3,16.3,30.9,36.2,30.9
      c18.2,0,32.2-13.2,32.2-23.9C68.4,25.9,62.1,21.1,53.9,15.7z M27.9,42.2c-4.6,0-7.7-3.6-7.7-8.2s3.1-8.2,7.7-8.2s7.7,3.6,7.7,8.2
      C35.5,38.6,32.5,42.2,27.9,42.2z M40.3,18.3c1.5,0,2.7,1.2,2.7,2.7s-1.2,2.8-2.7,2.8s-2.7-1.2-2.7-2.8
      C37.6,19.5,38.8,18.3,40.3,18.3z M40.4,42.2c-1.5,0-2.8-3.7-2.8-8.2s1.3-8.2,2.8-8.2s2.8,3.7,2.8,8.2
      C43.2,38.6,41.9,42.2,40.4,42.2z"/>
  </g>
</g>
</svg>
