<?xml version="1.0" encoding="UTF-8" standalone="no"?>
<svg width="48px" height="48px" viewBox="0 0 48 48" version="1.1" xmlns="http://www.w3.org/2000/svg" xmlns:xlink="http://www.w3.org/1999/xlink">
    <!-- Generator: Sketch 39.1 (31720) - http://www.bohemiancoding.com/sketch -->
    <title>brightness_L</title>
    <desc>Created with Sketch.</desc>
    <defs></defs>
    <g id="instalacao-fixo" stroke="none" stroke-width="1" fill="none" fill-rule="evenodd">
        <g id="instalacao-fixo-2" transform="translate(-286.000000, -563.000000)" fill="#FA5C23">
            <g id="Group-7" transform="translate(280.000000, 36.000000)">
                <g id="Group-4" transform="translate(6.000000, 527.000000)">
                    <path d="M23.9393939,33 C28.9099569,33 32.9393939,28.970563 32.9393939,24 C32.9393939,19.029437 28.9099569,15 23.9393939,15 C18.9688309,15 14.9393939,19.029437 14.9393939,24 C14.9393939,28.970563 18.9688309,33 23.9393939,33 Z M23.9393939,31 C27.8053874,31 30.9393939,27.8659934 30.9393939,24 C30.9393939,20.1340066 27.8053874,17 23.9393939,17 C20.0734005,17 16.9393939,20.1340066 16.9393939,24 C16.9393939,27.8659934 20.0734005,31 23.9393939,31 Z M22.9292929,0 L22.9292929,10 L24.9494949,10 L24.9494949,0 L22.9292929,0 Z M40.1528525,6.29743687 L33.0817846,13.3685047 L34.5102832,14.7970032 L41.581351,7.72593542 L40.1528525,6.29743687 Z M47.8787879,22.9292929 L37.8787879,22.9292929 L37.8787879,24.9494949 L47.8787879,24.9494949 L47.8787879,22.9292929 Z M41.581351,40.1528525 L34.5102832,33.0817846 L33.0817846,34.5102832 L40.1528525,41.581351 L41.581351,40.1528525 Z M24.9494949,47.8787879 L24.9494949,37.8787879 L22.9292929,37.8787879 L22.9292929,47.8787879 L24.9494949,47.8787879 Z M7.72593542,41.581351 L14.7970032,34.5102832 L13.3685047,33.0817846 L6.29743687,40.1528525 L7.72593542,41.581351 Z M0,24.9494949 L10,24.9494949 L10,22.9292929 L-3.71105091e-16,22.9292929 L0,24.9494949 Z M6.29743687,7.72593542 L13.3685047,14.7970032 L14.7970032,13.3685047 L7.72593542,6.29743687 L6.29743687,7.72593542 Z" id="brightness_L"></path>
                </g>
            </g>
        </g>
    </g>
</svg>