<?xml version="1.0" encoding="UTF-8" standalone="no"?>
<svg viewBox="0 0 49 49" version="1.1" xmlns="http://www.w3.org/2000/svg" xmlns:xlink="http://www.w3.org/1999/xlink">
    <!-- Generator: sketchtool 39.1 (31720) - http://www.bohemiancoding.com/sketch -->
    <title>F3C58D5B-29A1-4C8B-A762-FD8D6CFB053B</title>
    <desc>Created with sketchtool.</desc>
    <defs></defs>
    <g id="Layout" stroke="none" stroke-width="1" fill="none" fill-rule="evenodd">
        <g id="pre-home-light-2" transform="translate(-325.000000, -1391.000000)" stroke="#FB601B" stroke-width="2">
            <path d="M326.281463,1409.36301 C326.47757,1410.33016 326.770858,1411.25425 327.146196,1412.12596 L327.154925,1412.12247 C329.626921,1417.88697 333.173723,1423.08177 337.545105,1427.4549 C341.917651,1431.82628 347.113614,1435.37366 352.876948,1437.84449 L352.873457,1437.85322 C353.745755,1438.22914 354.66868,1438.52127 355.636413,1438.71795 C363.042507,1440.22164 370.266461,1435.5622 372,1428.26318 C369.402892,1427.14531 366.702201,1426.2672 363.935172,1425.64687 L363.748376,1425.6073 C361.75821,1425.17028 359.733129,1424.87001 357.688844,1424.70532 L354.746075,1431.20013 C345.577345,1427.03882 338.168341,1419.68277 333.93662,1410.55303 L340.295258,1407.3129 C340.129411,1405.26804 339.829722,1403.24354 339.392701,1401.25279 L339.353712,1401.06716 C338.732803,1398.29838 337.854686,1395.59827 336.736236,1393 C330.325807,1394.52172 325.952097,1400.27865 326.000396,1406.67512 C326.006797,1407.56196 326.098741,1408.46103 326.281463,1409.36301 L326.281463,1409.36301 Z" id="fale_desk"></path>
        </g>
    </g>
</svg>