<?xml version="1.0" encoding="UTF-8" standalone="no"?>
<svg width="71px" height="80px" viewBox="0 0 71 80" version="1.1" xmlns="http://www.w3.org/2000/svg" xmlns:xlink="http://www.w3.org/1999/xlink">
    <!-- Generator: Sketch 39.1 (31720) - http://www.bohemiancoding.com/sketch -->
    <title>logo_oi_desk</title>
    <desc>Created with Sketch.</desc>
    <defs></defs>
    <g id="Layout" stroke="none" stroke-width="1" fill="none" fill-rule="evenodd">
        <g id="cadastro-email/1" transform="translate(-49.000000, -60.000000)" fill="#FFFFFF">
            <g id="logo_oi_desk" transform="translate(49.000000, 60.000000)">
                <path d="M25.5008769,40.9201385 C22.9642615,40.9201385 21.5602615,43.4530615 21.5602615,46.0915231 C21.5602615,48.7342923 22.9642615,51.3398308 25.5008769,51.3398308 C28.0287231,51.3398308 29.4298,48.7342923 29.4298,46.0915231 C29.4298,43.4530615 28.0287231,40.9201385 25.5008769,40.9201385" id="Fill-1"></path>
                <g id="Group-5" transform="translate(0.000000, 0.051077)">
                    <path d="M40.5021538,55.9456769 C38.6461538,55.9456769 37.1341538,51.5315231 37.1341538,46.0829077 C37.1341538,40.6347538 38.6461538,36.2176769 40.5021538,36.2176769 C42.3595385,36.2176769 43.8649231,40.6347538 43.8649231,46.0829077 C43.8649231,51.5315231 42.3595385,55.9456769 40.5021538,55.9456769 M25.5009231,55.9392154 C19.9693846,55.9392154 16.2910769,51.5669077 16.2910769,46.0721385 C16.2910769,40.5842923 19.9693846,36.2069077 25.5009231,36.2069077 C31.018,36.2069077 34.692,40.5842923 34.692,46.0721385 C34.692,51.5669077 31.018,55.9392154 25.5009231,55.9392154 M40.4598462,27.1624462 C42.2883077,27.1624462 43.7621538,28.6426 43.7621538,30.4629077 C43.7621538,32.2887538 42.2883077,33.7702923 40.4598462,33.7702923 C38.6381538,33.7702923 37.1616923,32.2887538 37.1616923,30.4629077 C37.1616923,28.6426 38.6381538,27.1624462 40.4598462,27.1624462 M25.2747692,8.70213846 L24.5986154,9.19829231 C-48.6966154,62.1372154 64.6887692,103.644446 69.5178462,64.2638308 C73.0524615,35.4367538 65.3770769,-21.5332462 25.2747692,8.70213846" id="Fill-3"></path>
                </g>
            </g>
        </g>
    </g>
</svg>