<?xml version="1.0" encoding="UTF-8" standalone="no"?>
<svg viewBox="0 0 45 50" version="1.1" xmlns="http://www.w3.org/2000/svg" xmlns:xlink="http://www.w3.org/1999/xlink">
    <!-- Generator: sketchtool 39.1 (31720) - http://www.bohemiancoding.com/sketch -->
    <title>E18CE213-5FE6-4C91-A892-CB70BE4B9301</title>
    <desc>Created with sketchtool.</desc>
    <defs></defs>
    <g id="Layout" stroke="none" stroke-width="1" fill="none" fill-rule="evenodd">
        <g id="pre-home-light-2" transform="translate(-325.000000, -911.000000)" fill="#F64D41">
            <g id="recarga_desk" transform="translate(325.000000, 911.000000)">
                <path d="M22.5,50 L15.8333333,50 C13.6866667,50 11.89,49.2883333 10.495,47.8833333 C6.56333333,43.9283333 6.61666667,35.4083333 6.65833333,28.5633333 L6.66666667,26.6666667 C6.66666667,21.71 8.25666667,19.28 9.66,17.1366667 C10.7366667,15.49 11.6666667,14.0683333 11.6666667,11.6666667 C11.6666667,11.2066667 12.04,10.8333333 12.5,10.8333333 C12.96,10.8333333 13.3333333,11.2066667 13.3333333,11.6666667 C13.3333333,14.565 12.2266667,16.2566667 11.055,18.0483333 C9.71666667,20.095 8.33333333,22.2083333 8.33333333,26.6666667 L8.325,28.5733333 C8.28833333,34.765 8.23333333,43.2466667 11.6766667,46.7083333 C12.7616667,47.8033333 14.1233333,48.3333333 15.8333333,48.3333333 L22.5,48.3333333 C22.96,48.3333333 23.3333333,48.7066667 23.3333333,49.1666667 C23.3333333,49.6266667 22.96,50 22.5,50" id="Fill-687"></path>
                <path d="M29.1666667,50 L22.5,50 C22.04,50 21.6666667,49.6266667 21.6666667,49.1666667 C21.6666667,48.7066667 22.04,48.3333333 22.5,48.3333333 L29.1666667,48.3333333 C30.8766667,48.3333333 32.2383333,47.8033333 33.3233333,46.7083333 C36.7666667,43.2466667 36.7116667,34.765 36.675,28.5733333 L36.6666667,26.6666667 C36.6666667,22.1883333 35.2733333,19.825 33.925,17.54 C32.7633333,15.5716667 31.6666667,13.7116667 31.6666667,10.8333333 C31.6666667,10.3733333 32.04,10 32.5,10 C32.96,10 33.3333333,10.3733333 33.3333333,10.8333333 C33.3333333,13.255 34.2716667,14.8483333 35.3616667,16.6933333 C36.755,19.055 38.3333333,21.7316667 38.3333333,26.6666667 L38.3416667,28.5633333 C38.3833333,35.4083333 38.435,43.9283333 34.505,47.8833333 C33.11,49.2883333 31.3133333,50 29.1666667,50" id="Fill-688"></path>
                <path d="M20,18.3333333 C19.8316667,18.3333333 19.6633333,18.2833333 19.5166667,18.1783333 C18.37,17.3616667 8.33333333,10.0566667 8.33333333,5 C8.33333333,0.518333333 16.42,0 22.5,0 C22.96,0 23.3333333,0.373333333 23.3333333,0.833333333 C23.3333333,1.29333333 22.96,1.66666667 22.5,1.66666667 C12.1683333,1.66666667 10,3.48 10,5 C10,8.56166667 17.5683333,14.7416667 20.4833333,16.8216667 C20.86,17.0883333 20.945,17.6083333 20.6783333,17.9833333 C20.5166667,18.2116667 20.2583333,18.3333333 20,18.3333333" id="Fill-689"></path>
                <path d="M24.1666667,18.3333333 C23.8983333,18.3333333 23.6333333,18.2016667 23.4716667,17.96 C23.2183333,17.5766667 23.3233333,17.0583333 23.7066667,16.805 C26.8466667,14.7233333 35,8.54666667 35,5 C35,3.48 32.8316667,1.66666667 22.5,1.66666667 C22.04,1.66666667 21.6666667,1.29333333 21.6666667,0.833333333 C21.6666667,0.373333333 22.04,0 22.5,0 C28.58,0 36.6666667,0.518333333 36.6666667,5 C36.6666667,10.075 25.86,17.3783333 24.6266667,18.195 C24.485,18.2883333 24.3266667,18.3333333 24.1666667,18.3333333" id="Fill-690"></path>
                <path d="M25.8333333,26.6666667 L19.1666667,26.67 C18.71,26.67 18.3366667,27.0433333 18.3366667,27.5 L18.3333333,32.5 C18.3333333,32.9566667 18.7066667,33.33 19.1633333,33.33 L25.8366667,33.33 C26.2933333,33.33 26.6666667,32.9566667 26.6666667,32.5 L26.6633333,27.4966667 C26.6633333,27.04 26.29,26.6666667 25.8333333,26.6666667 M25.8366667,34.9966667 L19.1633333,34.9966667 C17.7866667,34.9966667 16.6666667,33.8766667 16.6666667,32.5 L16.67,27.5 C16.67,26.1233333 17.79,25.0033333 19.1666667,25.0033333 L25.8333333,25 C27.21,25 28.33,26.12 28.33,27.4966667 L28.3333333,32.5 C28.3333333,33.8766667 27.2133333,34.9966667 25.8366667,34.9966667" id="Fill-691"></path>
                <path d="M9.16666667,45.8333333 C9.04833333,45.8333333 8.92833333,45.8083333 8.815,45.755 C7.34166667,45.0683333 0,41.4833333 0,38.3333333 L0,25.8333333 C0,21.2783333 3.59833333,18.3333333 9.16666667,18.3333333 C9.62666667,18.3333333 10,18.7066667 10,19.1666667 C10,19.6266667 9.62666667,20 9.16666667,20 C4.47166667,20 1.66666667,22.1816667 1.66666667,25.8333333 L1.66666667,38.3333333 C1.66666667,39.7216667 5.74166667,42.4816667 9.51833333,44.245 C9.93666667,44.44 10.1166667,44.935 9.92166667,45.3516667 C9.78,45.6566667 9.47833333,45.8333333 9.16666667,45.8333333" id="Fill-692"></path>
                <path d="M35.8333333,45.8333333 C35.5216667,45.8333333 35.22,45.6566667 35.0783333,45.3533333 C34.8833333,44.935 35.0633333,44.44 35.48,44.245 C39.2583333,42.4816667 43.3333333,39.72 43.3333333,38.3333333 L43.3333333,25.8333333 C43.3333333,22.1816667 40.5283333,20 35.8333333,20 C35.3733333,20 35,19.6266667 35,19.1666667 C35,18.7066667 35.3733333,18.3333333 35.8333333,18.3333333 C41.4016667,18.3333333 45,21.2783333 45,25.8333333 L45,38.3333333 C45,41.4833333 37.6583333,45.0683333 36.185,45.755 C36.0716667,45.8083333 35.9516667,45.8333333 35.8333333,45.8333333" id="Fill-693"></path>
                <path d="M5.83166667,20 C5.43833333,20 5.08833333,19.72 5.015,19.3183333 C4.96166667,19.045 3.82666667,12.5216667 8.46833333,5.37833333 C8.72,4.99333333 9.23833333,4.88666667 9.62,5.135 C10.0066667,5.385 10.115,5.90166667 9.865,6.28666667 C5.60333333,12.8466667 6.64166667,18.9566667 6.65333333,19.0166667 C6.735,19.47 6.435,19.9016667 5.98333333,19.985 C5.93333333,19.995 5.88166667,20 5.83166667,20" id="Fill-694"></path>
                <path d="M39.1683333,20 C39.125,20 39.0783333,19.9966667 39.0333333,19.9883333 C38.5783333,19.915 38.2716667,19.4866667 38.345,19.0333333 C38.355,18.965 39.4066667,12.0283333 35.135,5.45333333 C34.885,5.06833333 34.9933333,4.55166667 35.3783333,4.30166667 C35.7633333,4.05166667 36.28,4.15833333 36.5316667,4.545 C41.1666667,11.68 40.0383333,18.9916667 39.9883333,19.3016667 C39.9216667,19.71 39.5683333,20 39.1683333,20" id="Fill-695"></path>
                <path d="M22.5,31.6666667 C22.04,31.6666667 21.6666667,31.2933333 21.6666667,30.8333333 L21.6666667,25.8333333 C21.6666667,25.3733333 22.04,25 22.5,25 C22.96,25 23.3333333,25.3733333 23.3333333,25.8333333 L23.3333333,30.8333333 C23.3333333,31.2933333 22.96,31.6666667 22.5,31.6666667" id="Fill-696"></path>
                <path d="M21.6666667,25 L23.3333333,25 L23.3333333,18.3333333 L21.6666667,18.3333333 L21.6666667,25 Z M24.1666667,26.6666667 L20.8333333,26.6666667 C20.3733333,26.6666667 20,26.2933333 20,25.8333333 L20,17.5 C20,17.04 20.3733333,16.6666667 20.8333333,16.6666667 L24.1666667,16.6666667 C24.6266667,16.6666667 25,17.04 25,17.5 L25,25.8333333 C25,26.2933333 24.6266667,26.6666667 24.1666667,26.6666667 L24.1666667,26.6666667 Z" id="Fill-697"></path>
                <path d="M21.6666667,40 L23.3333333,40 L23.3333333,35 L21.6666667,35 L21.6666667,40 Z M24.1666667,41.6666667 L20.8333333,41.6666667 C20.3733333,41.6666667 20,41.2933333 20,40.8333333 L20,34.1666667 C20,33.7066667 20.3733333,33.3333333 20.8333333,33.3333333 L24.1666667,33.3333333 C24.6266667,33.3333333 25,33.7066667 25,34.1666667 L25,40.8333333 C25,41.2933333 24.6266667,41.6666667 24.1666667,41.6666667 L24.1666667,41.6666667 Z" id="Fill-698"></path>
            </g>
        </g>
    </g>
</svg>