<?xml version="1.0" encoding="UTF-8" standalone="no"?>
<svg viewBox="0 0 56 50" version="1.1" xmlns="http://www.w3.org/2000/svg" xmlns:xlink="http://www.w3.org/1999/xlink">
    <!-- Generator: sketchtool 39.1 (31720) - http://www.bohemiancoding.com/sketch -->
    <title>363211E4-34CC-4393-9888-178937241257</title>
    <desc>Created with sketchtool.</desc>
    <defs></defs>
    <g id="Layout" stroke="none" stroke-width="1" fill="none" fill-rule="evenodd">
        <g id="pre-home-light-2" transform="translate(-321.000000, -430.000000)" fill="#F03A67">
            <g id="conta_desk" transform="translate(321.000000, 430.000000)">
                <path d="M47.2222222,46.2962963 L6.48148148,46.2962963 C5.97037037,46.2962963 5.55555556,45.8814815 5.55555556,45.3703704 L5.55555556,0.925925926 C5.55555556,0.414814815 5.97037037,0 6.48148148,0 L47.2222222,0 C47.7333333,0 48.1481481,0.414814815 48.1481481,0.925925926 C48.1481481,1.43703704 47.7333333,1.85185185 47.2222222,1.85185185 L7.40740741,1.85185185 L7.40740741,44.4444444 L46.2962963,44.4444444 L46.2962963,39.8148148 C46.2962963,39.3037037 46.7111111,38.8888889 47.2222222,38.8888889 C47.7333333,38.8888889 48.1481481,39.3037037 48.1481481,39.8148148 L48.1481481,45.3703704 C48.1481481,45.8814815 47.7333333,46.2962963 47.2222222,46.2962963" id="Fill-487"></path>
                <path d="M40.7407407,50 L0.925925926,50 C0.414814815,50 0,49.5851852 0,49.0740741 L0,8.33333333 C0,8.13333333 0.0648148148,7.93703704 0.185185185,7.77777778 L5.74074074,0.37037037 C6.05,-0.037037037 6.62962963,-0.118518519 7.03703704,0.185185185 C7.4462963,0.492592593 7.52777778,1.07222222 7.22222222,1.48148148 L1.85185185,8.64259259 L1.85185185,48.1481481 L40.4944444,48.1481481 L46.762963,44.5648148 C47.1981481,44.3185185 47.7703704,44.4666667 48.0277778,44.9111111 C48.2796296,45.3537037 48.1259259,45.9203704 47.6814815,46.1759259 L41.2,49.8796296 C41.0611111,49.9574074 40.9018519,50 40.7407407,50" id="Fill-488"></path>
                <path d="M0.925925926,50 C0.627777778,50 0.335185185,49.8555556 0.155555556,49.587037 C-0.127777778,49.162963 -0.012962963,48.587037 0.412962963,48.3037037 L5.96851852,44.6 C6.38703704,44.3185185 6.96666667,44.4296296 7.25185185,44.8574074 C7.53518519,45.2814815 7.42037037,45.8574074 6.99444444,46.1407407 L1.43888889,49.8444444 C1.28148148,49.95 1.1037037,50 0.925925926,50" id="Fill-489"></path>
                <path d="M54.6296296,40.7407407 L14.8148148,40.7407407 C14.6333333,40.7407407 14.4574074,40.6888889 14.3074074,40.5888889 C5.55555556,34.8407407 5.55555556,16.137037 5.55555556,1.11111111 C5.55555556,0.598148148 5.97037037,0.0925925926 6.48148148,0.0925925926 C6.99259259,0.0925925926 7.40740741,0.414814815 7.40740741,0.925925926 L7.40740741,1.11111111 C7.40740741,15.5518519 7.40740741,33.4944444 15.0981481,38.8888889 L52.1240741,38.8888889 C46.1185185,32.4074074 46.2037037,17.962963 46.2796296,5.07962963 C46.2888889,3.67037037 46.2962963,2.28148148 46.2962963,0.925925926 C46.2962963,0.414814815 46.7111111,0 47.2222222,0 C47.7333333,0 48.1481481,0.414814815 48.1481481,0.925925926 C48.1481481,2.28518519 48.1388889,3.67777778 48.1314815,5.09074074 C48.0518519,18.7925926 47.9592593,34.3259259 55.137037,39.0407407 C55.4796296,39.2648148 55.6333333,39.6888889 55.5166667,40.0814815 C55.4,40.4722222 55.0388889,40.7407407 54.6296296,40.7407407" id="Fill-490"></path>
                <path d="M17.0237475,24.9184397 L14.8943479,25 L14.8943479,12.7659574 L17.0237475,12.8475177 L17.0237475,24.9184397 Z M26.6060459,24.5514184 L24.4766463,24.6329787 L24.4766463,13.1329787 L26.6060459,13.214539 L26.6060459,24.5514184 Z M31.9295451,24.3475177 L29.8001454,24.429078 L29.8001454,13.3368794 L31.9295451,13.4184397 L31.9295451,24.3475177 Z M39.3824438,24.0620567 L37.2530442,24.143617 L37.2530442,13.6223404 L39.3824438,13.7039007 L39.3824438,24.0620567 Z M23.4119465,24.6737589 L20.217847,24.7960993 L20.217847,12.9698582 L23.4119465,13.0921986 L23.4119465,24.6737589 Z M19.1531472,24.8368794 L18.0884473,24.8776596 L18.0884473,12.8882979 L19.1531472,12.929078 L19.1531472,24.8368794 Z M28.7354456,24.4698582 L27.6707458,24.5106383 L27.6707458,13.2553191 L28.7354456,13.2960993 L28.7354456,24.4698582 Z M34.0589447,24.2659574 L32.9942449,24.3067376 L32.9942449,13.4592199 L34.0589447,13.5 L34.0589447,24.2659574 Z M36.1883444,24.1843972 L35.1236445,24.2251773 L35.1236445,13.5407801 L36.1883444,13.5815603 L36.1883444,24.1843972 Z M41.5118435,23.9804965 L40.4471437,24.0212766 L40.4471437,13.7446809 L41.5118435,13.785461 L41.5118435,23.9804965 Z" id="Combined-Shape"></path>
            </g>
        </g>
    </g>
</svg>