<?xml version="1.0" encoding="UTF-8" standalone="no"?>
<svg viewBox="0 0 48 48" version="1.1" xmlns="http://www.w3.org/2000/svg" xmlns:xlink="http://www.w3.org/1999/xlink">
    <!-- Generator: sketchtool 39.1 (31720) - http://www.bohemiancoding.com/sketch -->
    <title>1A17AFF3-193C-45DE-8839-B57D6F20C361</title>
    <desc>Created with sketchtool.</desc>
    <defs>
        <rect id="path-1" x="7.25951481" y="31.4904852" width="10" height="17.5" rx="2"></rect>
        <mask id="mask-2" maskContentUnits="userSpaceOnUse" maskUnits="objectBoundingBox" x="0" y="0" width="10" height="17.5" fill="white">
            <use xlink:href="#path-1"></use>
        </mask>
        <rect id="path-3" x="39.1421356" y="4.60786438" width="7.5" height="10"></rect>
        <mask id="mask-4" maskContentUnits="userSpaceOnUse" maskUnits="objectBoundingBox" x="0" y="0" width="7.5" height="10" fill="white">
            <use xlink:href="#path-3"></use>
        </mask>
        <path d="M26.5700792,9.20866114 L34.0700792,9.20866114 L34.0700792,51.294103 C34.0700792,52.4037743 33.1802787,53.3033405 32.0602168,53.3033405 L28.5799415,53.3033405 C27.4699252,53.3033405 26.5700792,52.4025513 26.5700792,51.294103 L26.5700792,9.20866114 Z" id="path-5"></path>
        <mask id="mask-6" maskContentUnits="userSpaceOnUse" maskUnits="objectBoundingBox" x="0" y="0" width="7.5" height="44.0946794" fill="white">
            <use xlink:href="#path-5"></use>
        </mask>
        <path d="M2.03432898,18.9897807 C1.0488713,18.0043231 1.02865615,16.3868462 1.96364554,15.4038866 L12.2863544,4.55156522 C13.2327747,3.55658827 15.1252201,2.75000011 16.5219618,2.75000012 L25.2280378,2.75000022 C26.6208789,2.75000024 26.9741073,3.56757917 26.0433782,4.54831365 L9.02768937,22.4782062 C8.08514831,23.4713872 6.53732272,23.4927745 5.53673883,22.4921906 L2.03432898,18.9897807 L2.03432898,18.9897807 Z" id="path-7"></path>
        <mask id="mask-8" maskContentUnits="userSpaceOnUse" maskUnits="objectBoundingBox" x="0" y="0" width="25.2832508" height="20.4829189" fill="white">
            <use xlink:href="#path-7"></use>
        </mask>
    </defs>
    <g id="Layout" stroke="none" stroke-width="1" fill="none" fill-rule="evenodd">
        <g id="pre-home-light-2" transform="translate(-327.000000, -673.000000)">
            <g id="instalacao_desk" transform="translate(326.000000, 671.000000)">
                <rect id="20x20" x="0" y="0" width="50" height="50"></rect>
                <rect id="Vertical" x="2.5" y="0" width="45" height="50"></rect>
                <rect id="Horizontal" x="0" y="2.5" width="50" height="45"></rect>
                <ellipse id="Circle" cx="25" cy="25" rx="25" ry="25"></ellipse>
                <use id="Line-22" stroke="#F34455" mask="url(#mask-2)" stroke-width="4" stroke-linecap="square" transform="translate(12.259515, 40.240485) rotate(-315.000000) translate(-12.259515, -40.240485) " xlink:href="#path-1"></use>
                <path d="M20.3748686,35.2765958 L20.728422,27.771578" id="Line-21" stroke="#F34455" stroke-width="2" stroke-linecap="round" stroke-linejoin="round" transform="translate(20.728422, 31.771578) rotate(-315.000000) translate(-20.728422, -31.771578) "></path>
                <path d="M33.4890705,27.3088718 L33.4890705,10.7129873" id="Line-20" stroke="#F34455" stroke-width="2" stroke-linecap="round" stroke-linejoin="round" transform="translate(33.489070, 19.010930) rotate(-315.000000) translate(-33.489070, -19.010930) "></path>
                <path d="M10.2772818,38.4727182 L17.7772818,38.4727182" id="Line-19" stroke="#F34455" stroke-width="2" stroke-linecap="square" transform="translate(14.027282, 38.472718) rotate(-315.000000) translate(-14.027282, -38.472718) "></path>
                <use id="Line-18" stroke="#F34455" mask="url(#mask-4)" stroke-width="4" stroke-linecap="square" transform="translate(42.892136, 9.607864) rotate(-315.000000) translate(-42.892136, -9.607864) " xlink:href="#path-3"></use>
                <use id="Line-17" stroke="#F34455" mask="url(#mask-6)" stroke-width="4" stroke-linecap="square" transform="translate(30.320079, 31.256001) rotate(-45.000000) translate(-30.320079, -31.256001) " xlink:href="#path-5"></use>
                <use id="Line-16" stroke="#F34455" mask="url(#mask-8)" stroke-width="4" stroke-linecap="square" xlink:href="#path-7"></use>
            </g>
        </g>
    </g>
</svg>