<?xml version="1.0" encoding="UTF-8" standalone="no"?>
<svg width="48px" height="47px" viewBox="0 0 48 47" version="1.1" xmlns="http://www.w3.org/2000/svg" xmlns:xlink="http://www.w3.org/1999/xlink">
    <!-- Generator: Sketch 39.1 (31720) - http://www.bohemiancoding.com/sketch -->
    <title>Group 2</title>
    <desc>Created with Sketch.</desc>
    <defs>
        <rect id="path-1" x="6.25951481" y="28.9904852" width="10" height="17.5" rx="2"></rect>
        <mask id="mask-2" maskContentUnits="userSpaceOnUse" maskUnits="objectBoundingBox" x="0" y="0" width="10" height="17.5" fill="white">
            <use xlink:href="#path-1"></use>
        </mask>
        <rect id="path-3" x="38.1421356" y="2.10786438" width="7.5" height="10"></rect>
        <mask id="mask-4" maskContentUnits="userSpaceOnUse" maskUnits="objectBoundingBox" x="0" y="0" width="7.5" height="10" fill="white">
            <use xlink:href="#path-3"></use>
        </mask>
        <path d="M25.5700792,6.70866114 L33.0700792,6.70866114 L33.0700792,48.794103 C33.0700792,49.9037743 32.1802787,50.8033405 31.0602168,50.8033405 L27.5799415,50.8033405 C26.4699252,50.8033405 25.5700792,49.9025513 25.5700792,48.794103 L25.5700792,6.70866114 Z" id="path-5"></path>
        <mask id="mask-6" maskContentUnits="userSpaceOnUse" maskUnits="objectBoundingBox" x="0" y="0" width="7.5" height="44.0946794" fill="white">
            <use xlink:href="#path-5"></use>
        </mask>
        <path d="M1.03432898,16.4897807 C0.0488712951,15.5043231 0.0286561505,13.8868462 0.963645542,12.9038866 L11.2863544,2.05156522 C12.2327747,1.05658827 14.1252201,0.250000108 15.5219618,0.250000124 L24.2280378,0.250000224 C25.6208789,0.25000024 25.9741073,1.06757917 25.0433782,2.04831365 L8.02768937,19.9782062 C7.08514831,20.9713872 5.53732272,20.9927745 4.53673883,19.9921906 L1.03432898,16.4897807 L1.03432898,16.4897807 Z" id="path-7"></path>
        <mask id="mask-8" maskContentUnits="userSpaceOnUse" maskUnits="objectBoundingBox" x="0" y="0" width="25.2832508" height="20.4829189" fill="white">
            <use xlink:href="#path-7"></use>
        </mask>
    </defs>
    <g id="instalacao-fixo" stroke="none" stroke-width="1" fill="none" fill-rule="evenodd">
        <g id="instalacao-fixo-2" transform="translate(-286.000000, -97.000000)" stroke="#F8562C">
            <g id="Group-7" transform="translate(280.000000, 36.000000)">
                <g id="Group-2" transform="translate(6.000000, 61.000000)">
                    <use id="Line-22" mask="url(#mask-2)" stroke-width="4" stroke-linecap="square" transform="translate(11.259515, 37.740485) rotate(-315.000000) translate(-11.259515, -37.740485) " xlink:href="#path-1"></use>
                    <path d="M19.3748686,32.7765958 L19.728422,25.271578" id="Line-21" stroke-width="2" stroke-linecap="round" stroke-linejoin="round" transform="translate(19.728422, 29.271578) rotate(-315.000000) translate(-19.728422, -29.271578) "></path>
                    <path d="M32.4890705,24.8088718 L32.4890705,8.21298726" id="Line-20" stroke-width="2" stroke-linecap="round" stroke-linejoin="round" transform="translate(32.489070, 16.510930) rotate(-315.000000) translate(-32.489070, -16.510930) "></path>
                    <path d="M9.27728176,35.9727182 L16.7772818,35.9727182" id="Line-19" stroke-width="2" stroke-linecap="square" transform="translate(13.027282, 35.972718) rotate(-315.000000) translate(-13.027282, -35.972718) "></path>
                    <use id="Line-18" mask="url(#mask-4)" stroke-width="4" stroke-linecap="square" transform="translate(41.892136, 7.107864) rotate(-315.000000) translate(-41.892136, -7.107864) " xlink:href="#path-3"></use>
                    <use id="Line-17" mask="url(#mask-6)" stroke-width="4" stroke-linecap="square" transform="translate(29.320079, 28.756001) rotate(-45.000000) translate(-29.320079, -28.756001) " xlink:href="#path-5"></use>
                    <use id="Line-16" mask="url(#mask-8)" stroke-width="4" stroke-linecap="square" xlink:href="#path-7"></use>
                </g>
            </g>
        </g>
    </g>
</svg>