<?xml version="1.0" encoding="UTF-8" standalone="no"?>
<svg width="60px" height="59px" viewBox="0 0 60 59" version="1.1" xmlns="http://www.w3.org/2000/svg" xmlns:xlink="http://www.w3.org/1999/xlink">
    <!-- Generator: Sketch 39.1 (31720) - http://www.bohemiancoding.com/sketch -->
    <title>Group 7</title>
    <desc>Created with Sketch.</desc>
    <defs></defs>
    <g id="instalacao-fixo" stroke="none" stroke-width="1" fill="none" fill-rule="evenodd">
        <g id="instalacao-fixo-2" transform="translate(-281.000000, -327.000000)" fill="#F75336">
            <g id="Group-7" transform="translate(280.000000, 36.000000)">
                <g id="Group-3" transform="translate(8.000000, 295.000000)">
                    <path d="M22.5,50.5 L15.8333333,50.5 C13.6866667,50.5 11.89,49.7883333 10.495,48.3833333 C6.56333333,44.4283333 6.61666667,35.9083333 6.65833333,29.0633333 L6.66666667,27.1666667 C6.66666667,22.21 8.25666667,19.78 9.66,17.6366667 C10.7366667,15.99 11.6666667,14.5683333 11.6666667,12.1666667 C11.6666667,11.7066667 12.04,11.3333333 12.5,11.3333333 C12.96,11.3333333 13.3333333,11.7066667 13.3333333,12.1666667 C13.3333333,15.065 12.2266667,16.7566667 11.055,18.5483333 C9.71666667,20.595 8.33333333,22.7083333 8.33333333,27.1666667 L8.325,29.0733333 C8.28833333,35.265 8.23333333,43.7466667 11.6766667,47.2083333 C12.7616667,48.3033333 14.1233333,48.8333333 15.8333333,48.8333333 L22.5,48.8333333 C22.96,48.8333333 23.3333333,49.2066667 23.3333333,49.6666667 C23.3333333,50.1266667 22.96,50.5 22.5,50.5" id="Fill-687"></path>
                    <path d="M29.1666667,50.5 L22.5,50.5 C22.04,50.5 21.6666667,50.1266667 21.6666667,49.6666667 C21.6666667,49.2066667 22.04,48.8333333 22.5,48.8333333 L29.1666667,48.8333333 C30.8766667,48.8333333 32.2383333,48.3033333 33.3233333,47.2083333 C36.7666667,43.7466667 36.7116667,35.265 36.675,29.0733333 L36.6666667,27.1666667 C36.6666667,22.6883333 35.2733333,20.325 33.925,18.04 C32.7633333,16.0716667 31.6666667,14.2116667 31.6666667,11.3333333 C31.6666667,10.8733333 32.04,10.5 32.5,10.5 C32.96,10.5 33.3333333,10.8733333 33.3333333,11.3333333 C33.3333333,13.755 34.2716667,15.3483333 35.3616667,17.1933333 C36.755,19.555 38.3333333,22.2316667 38.3333333,27.1666667 L38.3416667,29.0633333 C38.3833333,35.9083333 38.435,44.4283333 34.505,48.3833333 C33.11,49.7883333 31.3133333,50.5 29.1666667,50.5" id="Fill-688"></path>
                    <path d="M20,18.8333333 C19.8316667,18.8333333 19.6633333,18.7833333 19.5166667,18.6783333 C18.37,17.8616667 8.33333333,10.5566667 8.33333333,5.5 C8.33333333,1.01833333 16.42,0.5 22.5,0.5 C22.96,0.5 23.3333333,0.873333333 23.3333333,1.33333333 C23.3333333,1.79333333 22.96,2.16666667 22.5,2.16666667 C12.1683333,2.16666667 10,3.98 10,5.5 C10,9.06166667 17.5683333,15.2416667 20.4833333,17.3216667 C20.86,17.5883333 20.945,18.1083333 20.6783333,18.4833333 C20.5166667,18.7116667 20.2583333,18.8333333 20,18.8333333" id="Fill-689"></path>
                    <path d="M24.1666667,18.8333333 C23.8983333,18.8333333 23.6333333,18.7016667 23.4716667,18.46 C23.2183333,18.0766667 23.3233333,17.5583333 23.7066667,17.305 C26.8466667,15.2233333 35,9.04666667 35,5.5 C35,3.98 32.8316667,2.16666667 22.5,2.16666667 C22.04,2.16666667 21.6666667,1.79333333 21.6666667,1.33333333 C21.6666667,0.873333333 22.04,0.5 22.5,0.5 C28.58,0.5 36.6666667,1.01833333 36.6666667,5.5 C36.6666667,10.575 25.86,17.8783333 24.6266667,18.695 C24.485,18.7883333 24.3266667,18.8333333 24.1666667,18.8333333" id="Fill-690"></path>
                    <path d="M25.8333333,27.1666667 L19.1666667,27.17 C18.71,27.17 18.3366667,27.5433333 18.3366667,28 L18.3333333,33 C18.3333333,33.4566667 18.7066667,33.83 19.1633333,33.83 L25.8366667,33.83 C26.2933333,33.83 26.6666667,33.4566667 26.6666667,33 L26.6633333,27.9966667 C26.6633333,27.54 26.29,27.1666667 25.8333333,27.1666667 M25.8366667,35.4966667 L19.1633333,35.4966667 C17.7866667,35.4966667 16.6666667,34.3766667 16.6666667,33 L16.67,28 C16.67,26.6233333 17.79,25.5033333 19.1666667,25.5033333 L25.8333333,25.5 C27.21,25.5 28.33,26.62 28.33,27.9966667 L28.3333333,33 C28.3333333,34.3766667 27.2133333,35.4966667 25.8366667,35.4966667" id="Fill-691"></path>
                    <path d="M9.16666667,46.3333333 C9.04833333,46.3333333 8.92833333,46.3083333 8.815,46.255 C7.34166667,45.5683333 0,41.9833333 0,38.8333333 L0,26.3333333 C0,21.7783333 3.59833333,18.8333333 9.16666667,18.8333333 C9.62666667,18.8333333 10,19.2066667 10,19.6666667 C10,20.1266667 9.62666667,20.5 9.16666667,20.5 C4.47166667,20.5 1.66666667,22.6816667 1.66666667,26.3333333 L1.66666667,38.8333333 C1.66666667,40.2216667 5.74166667,42.9816667 9.51833333,44.745 C9.93666667,44.94 10.1166667,45.435 9.92166667,45.8516667 C9.78,46.1566667 9.47833333,46.3333333 9.16666667,46.3333333" id="Fill-692"></path>
                    <path d="M35.8333333,46.3333333 C35.5216667,46.3333333 35.22,46.1566667 35.0783333,45.8533333 C34.8833333,45.435 35.0633333,44.94 35.48,44.745 C39.2583333,42.9816667 43.3333333,40.22 43.3333333,38.8333333 L43.3333333,26.3333333 C43.3333333,22.6816667 40.5283333,20.5 35.8333333,20.5 C35.3733333,20.5 35,20.1266667 35,19.6666667 C35,19.2066667 35.3733333,18.8333333 35.8333333,18.8333333 C41.4016667,18.8333333 45,21.7783333 45,26.3333333 L45,38.8333333 C45,41.9833333 37.6583333,45.5683333 36.185,46.255 C36.0716667,46.3083333 35.9516667,46.3333333 35.8333333,46.3333333" id="Fill-693"></path>
                    <path d="M5.83166667,20.5 C5.43833333,20.5 5.08833333,20.22 5.015,19.8183333 C4.96166667,19.545 3.82666667,13.0216667 8.46833333,5.87833333 C8.72,5.49333333 9.23833333,5.38666667 9.62,5.635 C10.0066667,5.885 10.115,6.40166667 9.865,6.78666667 C5.60333333,13.3466667 6.64166667,19.4566667 6.65333333,19.5166667 C6.735,19.97 6.435,20.4016667 5.98333333,20.485 C5.93333333,20.495 5.88166667,20.5 5.83166667,20.5" id="Fill-694"></path>
                    <path d="M39.1683333,20.5 C39.125,20.5 39.0783333,20.4966667 39.0333333,20.4883333 C38.5783333,20.415 38.2716667,19.9866667 38.345,19.5333333 C38.355,19.465 39.4066667,12.5283333 35.135,5.95333333 C34.885,5.56833333 34.9933333,5.05166667 35.3783333,4.80166667 C35.7633333,4.55166667 36.28,4.65833333 36.5316667,5.045 C41.1666667,12.18 40.0383333,19.4916667 39.9883333,19.8016667 C39.9216667,20.21 39.5683333,20.5 39.1683333,20.5" id="Fill-695"></path>
                    <path d="M22.5,32.1666667 C22.04,32.1666667 21.6666667,31.7933333 21.6666667,31.3333333 L21.6666667,26.3333333 C21.6666667,25.8733333 22.04,25.5 22.5,25.5 C22.96,25.5 23.3333333,25.8733333 23.3333333,26.3333333 L23.3333333,31.3333333 C23.3333333,31.7933333 22.96,32.1666667 22.5,32.1666667" id="Fill-696"></path>
                    <path d="M21.6666667,25.5 L23.3333333,25.5 L23.3333333,18.8333333 L21.6666667,18.8333333 L21.6666667,25.5 Z M24.1666667,27.1666667 L20.8333333,27.1666667 C20.3733333,27.1666667 20,26.7933333 20,26.3333333 L20,18 C20,17.54 20.3733333,17.1666667 20.8333333,17.1666667 L24.1666667,17.1666667 C24.6266667,17.1666667 25,17.54 25,18 L25,26.3333333 C25,26.7933333 24.6266667,27.1666667 24.1666667,27.1666667 L24.1666667,27.1666667 Z" id="Fill-697"></path>
                    <path d="M21.6666667,40.5 L23.3333333,40.5 L23.3333333,35.5 L21.6666667,35.5 L21.6666667,40.5 Z M24.1666667,42.1666667 L20.8333333,42.1666667 C20.3733333,42.1666667 20,41.7933333 20,41.3333333 L20,34.6666667 C20,34.2066667 20.3733333,33.8333333 20.8333333,33.8333333 L24.1666667,33.8333333 C24.6266667,33.8333333 25,34.2066667 25,34.6666667 L25,41.3333333 C25,41.7933333 24.6266667,42.1666667 24.1666667,42.1666667 L24.1666667,42.1666667 Z" id="Fill-698"></path>
                </g>
            </g>
        </g>
    </g>
</svg>